<svg width="155" height="44" viewBox="0 0 155 44" fill="none" xmlns="http://www.w3.org/2000/svg">
<path d="M153.611 42.2925C151.39 42.6343 148.705 43.2558 140.466 43.2558C131.455 43.2558 124.481 40.8009 124.481 28.9615V14.2943C124.481 2.45489 131.486 0 140.466 0C148.705 0 151.39 0.621484 153.611 0.963305C154.661 1.0876 155 1.4605 155 2.42381V6.92963C155 7.70649 154.383 8.32798 153.611 8.32798H139.478C135.467 8.32798 134.017 9.72634 134.017 14.3254V17.1221H152.778C153.55 17.1221 154.167 17.7436 154.167 18.5204V23.5545C154.167 24.3314 153.55 24.9529 152.778 24.9529H134.017V29.0237C134.017 33.6227 135.467 35.021 139.478 35.021H153.611C154.383 35.021 155 35.6425 155 36.4194V40.8941C155 41.7953 154.661 42.1682 153.611 42.2925Z" fill="#111111"/>
<path d="M72.2387 2.39284L65.3882 41.0496C65.2339 41.7643 64.6785 42.3858 63.9996 42.3858H63.2899C62.6727 42.3858 62.3024 41.8886 62.3024 41.3293C62.3024 41.1739 62.3024 41.1118 62.3024 41.0496L69.1529 2.39284C69.3072 1.67813 69.8626 1.05664 70.5415 1.05664H71.2513C71.8684 1.05664 72.2387 1.55383 72.2387 2.11317C72.2387 2.26855 72.2387 2.33069 72.2387 2.39284Z" fill="#111111"/>
<path d="M54.7422 2.23747L49.0952 36.7303C48.478 41.1118 46.4722 42.3858 42.8618 42.3858H39.128C36.0114 42.3858 34.345 40.8632 33.3884 36.8235L27.9265 19.4839C27.8031 18.8624 27.8031 18.707 27.5254 18.707C27.2477 18.707 27.1859 18.8313 27.0317 19.4839L21.5389 36.8235C20.5823 40.8632 18.916 42.3858 15.7993 42.3858H12.0346C8.42425 42.3858 6.41848 41.1428 5.80131 36.7303L0 2.23747C0 2.17532 0 2.11318 0 2.01995C0 1.39846 0.555445 1.05664 1.17261 1.05664H8.51682C9.07227 1.05664 9.62771 1.55383 9.68943 2.29962L13.9787 32.877C14.0404 33.4985 14.0404 33.9335 14.3181 33.9335C14.5959 33.9335 14.5959 33.5296 14.7193 32.877L20.6749 14.0769C21.0761 12.3989 22.0635 10.9384 25.0259 10.9384H29.8089C32.7713 10.9384 33.7587 12.3989 34.1599 14.0769L40.1155 32.877C40.2389 33.4985 40.2389 33.9335 40.5166 33.9335C40.7943 33.9335 40.7944 33.5296 40.8561 32.877L44.991 2.29962C45.0528 1.52276 45.6082 1.05664 46.1637 1.05664H53.5079C54.125 1.05664 54.6805 1.39846 54.6805 2.01995C54.7422 2.11318 54.7422 2.17532 54.7422 2.23747Z" fill="#111111"/>
<path d="M113.959 1.05664H113.126C112.416 1.05664 111.922 1.67813 111.799 2.39284L105.442 38.8433C105.38 39.123 105.01 39.4027 104.948 39.4027H104.917C104.886 39.4027 104.886 39.4027 104.856 39.4027C104.64 39.3716 104.578 39.1852 104.516 38.9366L93.0678 3.26294C92.6358 2.05103 91.7409 1.08772 89.9203 1.08772C89.8277 1.08772 89.7352 1.08772 89.6426 1.08772C89.6117 1.08772 89.55 1.08772 89.5192 1.08772C88.1305 1.24309 86.5259 2.14425 86.0939 4.50592L79.6446 41.0496C79.6446 41.1118 79.6446 41.205 79.6446 41.3293C79.6446 41.8886 79.984 42.3858 80.6321 42.3858H81.3418C82.0515 42.3858 82.607 41.7643 82.7304 41.0496L89.1797 4.50592C89.2414 4.19518 89.3957 4.07088 89.5192 4.0398C89.55 4.0398 89.55 4.00873 89.5809 4.00873C89.6117 4.00873 89.6117 4.00873 89.6426 4.00873C89.8895 4.0398 90.1363 4.22625 90.198 4.50592L101.646 40.1174C102.202 41.8886 103.128 42.3858 104.856 42.3858H104.886C106.614 42.3548 108.157 41.1118 108.559 38.8744L114.915 2.42392C114.915 2.36177 114.915 2.2064 114.915 2.14425C114.946 1.55383 114.668 1.05664 113.959 1.05664Z" fill="#111111"/>
</svg>
