<svg width="409" height="113" viewBox="0 0 409 113" fill="none" xmlns="http://www.w3.org/2000/svg">
<g clip-path="url(#clip0_2_1333)">
<path fill-rule="evenodd" clip-rule="evenodd" d="M191.173 54.8855C188.426 55.3367 185.073 56.1465 174.848 56.1465C163.681 56.1465 155.003 52.9959 155.003 37.7047L155.007 18.7784C155.007 3.48716 163.685 0.336473 174.852 0.336473C185.073 0.336473 188.426 1.14633 191.177 1.59749C192.466 1.77869 192.894 2.22615 192.894 3.48716V9.24493C192.898 10.2323 192.13 11.0348 191.177 11.0422H173.651C168.67 11.0422 166.864 12.8394 166.864 18.7784V22.3728H190.147C191.092 22.3728 191.864 23.1827 191.864 24.17V30.6489C191.867 31.6363 191.099 32.4387 190.147 32.4461H166.864L166.861 37.701C166.861 43.6362 168.663 45.4372 173.648 45.4372H191.173C192.118 45.4372 192.89 46.247 192.89 47.2344V52.9885C192.89 54.2532 192.462 54.7043 191.173 54.8855ZM89.2444 3.92352L80.2749 54.39C80.0903 55.3108 79.3555 56.1391 78.436 56.1391H77.5165C76.6893 56.1391 76.2315 55.4957 76.2315 54.7598V54.39L85.2009 3.92352C85.3856 3.00272 86.1204 2.17437 87.0399 2.17437H87.9594C88.7865 2.17437 89.2444 2.81783 89.2444 3.55373C89.2444 3.55742 89.2444 3.92352 89.2444 3.92352ZM68.7907 3.72013L61.6786 48.7691C60.8958 54.5046 58.37 56.1428 53.8465 56.1428H49.1494C45.2352 56.1428 43.1451 54.1385 41.9266 48.8615L35.0508 26.215C34.8773 25.3978 34.8773 25.2129 34.5301 25.2129C34.1793 25.2129 34.0944 25.3941 33.9209 26.215L27.0451 48.8578C25.8265 54.1385 23.7402 56.1391 19.8222 56.1391H15.1215C10.5943 56.1391 8.06848 54.5009 7.28564 48.7654L0 3.72013V3.45018C0 2.62923 0.697915 2.17437 1.48076 2.17437H10.705C11.403 2.17437 12.1009 2.81413 12.1858 3.81258L17.5586 43.762C17.6436 44.5792 17.6436 45.1265 17.9944 45.1265C18.3415 45.1265 18.3415 44.5792 18.515 43.762L25.9964 19.2073C26.5207 17.0218 27.7393 15.1099 31.4837 15.1099H37.488C41.2286 15.1099 42.4472 17.0218 42.9716 19.2036L50.4529 43.762C50.6302 44.5792 50.6302 45.1265 50.9773 45.1265C51.3244 45.1265 51.3244 44.5792 51.413 43.762L56.6049 3.81258C56.6935 2.81043 57.3878 2.17437 58.082 2.17437H67.31C68.0928 2.17437 68.7907 2.62923 68.7907 3.45018V3.72013ZM141.972 2.17437C142.821 2.17437 143.161 2.82152 143.161 3.55742V3.92722L135.469 51.5388C134.963 54.464 133.121 56.1133 131.023 56.1428V56.1391L130.975 56.1428H130.961C128.852 56.1392 127.752 55.492 127.072 53.1956L113.225 6.68962C113.14 6.3568 112.87 6.10904 112.541 6.06096V6.04617C112.516 6.04247 112.486 6.03138 112.46 6.03138C112.438 6.03138 112.409 6.04617 112.383 6.05357V6.03508C112.22 6.08315 112.025 6.26435 111.951 6.66004L104.133 54.3937C103.963 55.3182 103.288 56.1428 102.438 56.1428H101.589C100.825 56.1428 100.404 55.4994 100.404 54.7635V54.3937L108.217 6.65634C108.756 3.56112 110.695 2.36667 112.379 2.17437V2.19286L112.541 2.17437V2.18917C112.656 2.17807 112.77 2.17437 112.885 2.17437C115.089 2.17437 116.194 3.46497 116.703 5.03292L130.551 51.6313C130.624 51.9567 130.713 52.1897 130.961 52.2489C130.983 52.2526 131.001 52.2674 131.023 52.2674C131.034 52.271 131.045 52.2784 131.06 52.2784C131.145 52.2784 131.57 51.9086 131.655 51.5425L139.347 3.93092C139.516 3.00642 140.111 2.17807 140.957 2.17807H141.972V2.17437Z" fill="white"/>
<path d="M244.303 2.22622L220.275 52.3525C219.09 54.8782 217.31 55.9913 214.935 55.9913C212.561 55.9913 210.933 54.8782 210.633 52.3525L204.256 2.22622C204.256 2.0783 204.256 2.00434 204.256 1.85642C204.256 1.03917 204.625 0.369831 205.442 0.369831H206.332C206.852 0.369831 207.295 0.817288 207.369 1.40897L213.673 51.3873C213.82 52.5744 214.341 52.9479 215.157 52.9479C215.973 52.9479 216.715 52.5781 217.306 51.3873L241.187 1.41266C241.482 0.817288 242.003 0.373529 242.523 0.373529H243.413C244.082 0.373529 244.525 0.820986 244.525 1.41266C244.525 1.7085 244.451 1.93038 244.303 2.22622Z" fill="white"/>
<path d="M282.046 1.63454L281.972 2.22992C281.898 2.97322 281.156 3.41698 280.34 3.41698H261.208C257.427 3.41698 255.348 4.08631 254.536 8.69031L251.644 25.028H276.489C277.157 25.028 277.748 25.3239 277.748 25.9932C277.748 26.0672 277.748 26.1411 277.748 26.2151L277.6 26.9584C277.452 27.7017 276.784 28.2194 275.968 28.2194H251.127L247.789 47.2308C247.642 47.9001 247.642 48.4918 247.642 49.0132C247.642 51.9827 249.495 52.5041 252.534 52.5041H271.666C272.334 52.5041 272.851 52.7999 272.851 53.4693C272.851 53.5432 272.851 53.6172 272.851 53.6912L272.777 54.2865C272.704 55.0298 271.961 55.5475 271.145 55.5475H252.014C247.195 55.5475 244.303 53.5432 244.303 49.2351C244.303 48.6397 244.377 47.9741 244.525 47.2308L251.271 8.69031C252.383 2.22622 255.721 0.369831 261.729 0.369831H280.861C281.603 0.369831 282.046 0.73963 282.046 1.40897C282.046 1.48662 282.046 1.56058 282.046 1.63454Z" fill="white"/>
<path d="M322.684 15.1507L322.61 15.5205C320.682 25.2499 315.269 29.2585 306.739 30.2977L317.64 53.3953C317.787 53.6912 317.861 53.9907 317.861 54.2865C317.861 54.9559 317.492 55.5476 316.602 55.5476H315.86C315.491 55.5476 314.97 55.2517 314.748 54.8782L303.179 30.6675H299.767C296.876 30.6675 290.199 30.5935 290.199 30.5935L286.045 54.1349C285.898 54.8782 285.303 55.5476 284.561 55.5476H283.819C283.15 55.5476 282.781 55.0261 282.781 54.3605C282.781 54.2865 282.781 54.2126 282.781 54.1386L292.049 1.70852C292.197 1.03918 292.866 0.373543 293.534 0.295885C296.13 0.147965 301.986 4.57764e-05 305.177 4.57764e-05C316.82 4.57764e-05 323.049 3.63887 323.049 11.5119C323.053 12.625 322.905 13.886 322.684 15.1507ZM304.59 3.11745C301.477 3.11745 297.323 3.19141 295.022 3.41329L290.798 27.4761C292.799 27.4761 298.434 27.5501 300.587 27.5501C312.082 27.5501 317.496 24.9504 319.349 15.5205L319.423 15.1507C319.645 13.8897 319.793 12.7729 319.793 11.7338C319.793 5.12546 314.674 3.11745 304.59 3.11745Z" fill="white"/>
<path d="M364.138 1.85644L363.99 2.82161C363.916 3.49095 363.396 3.78679 362.653 3.78679C362.58 3.78679 362.506 3.78679 362.432 3.78679C359.688 3.56491 355.312 3.11745 351.531 3.11745C344.338 3.11745 335.885 4.37847 335.885 13.3646C335.885 17.3732 338.85 20.2724 343.968 23.6857L347.824 26.2854C355.981 31.7806 358.872 35.6413 358.872 40.0974C358.872 51.6832 349.231 55.9913 338.924 55.9913C334.696 55.9913 330.693 55.5439 327.577 55.1741C326.982 55.1001 326.465 54.8043 326.465 54.1349C326.465 54.1349 326.465 54.061 326.465 53.987L326.613 53.0218C326.761 52.2785 327.207 52.1306 327.724 52.1306C327.872 52.1306 327.946 52.1306 328.094 52.1306C331.875 52.5004 335.361 52.9479 339.441 52.9479C347.968 52.9479 355.386 49.8305 355.386 40.4709C355.386 36.3846 352.864 33.7886 345.818 28.959L342.037 26.3593C336.328 22.4247 332.543 18.8598 332.543 13.7344C332.547 2.59973 342.632 4.57764e-05 352.196 4.57764e-05C356.125 4.57764e-05 359.984 0.443805 363.096 0.743342C363.765 0.817302 364.134 1.11314 364.134 1.63456C364.134 1.70852 364.134 1.70852 364.134 1.78248V1.85644H364.138Z" fill="white"/>
<path d="M408.332 23.3936L406.699 32.6016C403.66 49.6086 394.687 55.9951 383.635 55.9951C374.44 55.9951 368.063 50.9436 368.063 39.5094C368.063 37.4311 368.285 35.1273 368.731 32.6016L370.364 23.3936C373.48 5.79114 382.38 8.2016e-05 393.502 8.2016e-05C402.771 8.2016e-05 409 5.27342 409 16.5597C409 18.6417 408.778 20.8678 408.332 23.3936ZM392.907 3.11749C383.86 3.11749 376.372 8.01733 373.628 23.3899L371.996 32.5979C371.549 35.2715 371.327 37.5754 371.327 39.6536C371.327 49.531 376.445 52.8739 384.156 52.8739C393.35 52.8739 400.839 47.1569 403.435 32.6016L405.067 23.3936C405.514 20.7939 405.736 18.4161 405.736 16.4118C405.739 6.31255 400.4 3.11749 392.907 3.11749Z" fill="white"/>
<path d="M256.537 103.422C255.064 103.422 252.833 103.233 250.979 102.897V111.509C250.979 111.986 250.599 112.412 250.078 112.412H247.656C247.18 112.412 246.799 112.031 246.799 111.509V78.7785C246.799 78.1609 246.943 77.8762 247.796 77.6839C250.315 77.0663 253.638 76.5892 256.537 76.5892C263.616 76.5892 266.895 81.2043 266.895 88.3415V91.7658C266.895 99.2358 263.472 103.422 256.537 103.422ZM262.715 88.3415C262.715 83.3455 261.241 80.1097 256.541 80.1097C254.547 80.1097 252.312 80.3464 250.983 80.5868V99.4243C252.553 99.7091 255.019 99.9014 256.541 99.9014C261.197 99.9014 262.715 96.8579 262.715 91.7658V88.3415Z" fill="white"/>
<path d="M282.19 103.422C275.207 103.422 271.644 98.8068 271.644 91.8139V88.1972C271.644 81.2043 275.207 76.5892 282.19 76.5892C289.173 76.5892 292.784 81.2043 292.784 88.1972V91.8139C292.78 98.8105 289.173 103.422 282.19 103.422ZM288.6 88.2009C288.6 83.3492 286.654 80.2577 282.186 80.2577C277.77 80.2577 275.82 83.3011 275.82 88.2009V91.8176C275.82 96.6693 277.722 99.7608 282.186 99.7608C286.603 99.7608 288.6 96.7174 288.6 91.8176V88.2009Z" fill="white"/>
<path d="M316.628 102.616C313.681 103.185 310.786 103.426 307.887 103.426C300.808 103.426 297.533 98.8105 297.533 91.6734V88.249C297.533 80.7791 300.952 76.593 307.887 76.593C309.36 76.593 311.591 76.7372 313.445 77.07V68.2207C313.445 67.7437 313.825 67.3184 314.346 67.3184H316.768C317.244 67.3184 317.625 67.6993 317.625 68.2207V101.521C317.625 102.139 317.484 102.471 316.628 102.616ZM313.445 80.5868C311.875 80.3021 309.405 80.254 307.887 80.254C303.231 80.254 301.713 83.1569 301.713 88.2453V91.6697C301.713 96.8542 303.186 99.7572 307.887 99.7572C309.501 99.7572 311.831 99.6129 313.445 99.4724V80.5868Z" fill="white"/>
<path d="M339.286 102.9C337.717 103.185 335.582 103.426 333.348 103.426C326.886 103.426 323.23 98.8585 323.23 91.8656V88.1565C323.23 81.1636 326.842 76.5966 333.348 76.5966C335.534 76.5966 337.72 76.8333 339.286 77.1217C340.047 77.266 340.235 77.5026 340.235 78.1683V79.8804C340.235 80.3575 339.855 80.5941 339.426 80.5941C339.33 80.5941 339.282 80.5941 339.238 80.5941C337.148 80.3575 335.675 80.2613 333.348 80.2613C329.548 80.2613 327.41 82.7834 327.41 88.1602V91.8693C327.41 97.1981 329.5 99.7682 333.348 99.7682C335.675 99.7682 337.148 99.6721 339.238 99.4354C339.286 99.4354 339.334 99.4354 339.426 99.4354C339.855 99.4354 340.235 99.6721 340.235 100.149V101.861C340.235 102.471 340.047 102.756 339.286 102.9Z" fill="white"/>
<path d="M362.801 103.089H360.615C360.09 103.089 359.666 102.66 359.666 102.139V101.092C357.387 102.423 355.009 103.422 352.35 103.422C348.314 103.422 344.607 101.662 344.607 95.7153V95.1458C344.607 90.0093 347.602 87.4392 356.054 87.4392H359.57V85.5348C359.57 81.5372 358.192 80.1579 354.485 80.1579C351.398 80.1579 349.116 80.3465 347.218 80.5388C347.122 80.5388 347.074 80.5388 346.981 80.5388C346.553 80.5388 346.125 80.3945 346.125 79.777V78.1129C346.125 77.5878 346.457 77.303 347.122 77.2106C349.068 76.8778 351.254 76.593 354.485 76.593C361.087 76.593 363.75 79.9249 363.75 85.5384V102.142C363.75 102.664 363.321 103.089 362.801 103.089ZM359.57 90.4346H356.054C350.305 90.4346 348.787 91.7178 348.787 95.0978V95.6672C348.787 99.0916 350.401 99.9976 353.155 99.9976C355.342 99.9976 357.288 99.332 359.57 98.0931V90.4346V90.4346Z" fill="white"/>
<path d="M377.856 103.422C376.098 103.422 372.679 103.278 370.349 102.708C369.732 102.564 369.352 102.279 369.352 101.758V100.094C369.352 99.6648 369.732 99.38 370.208 99.38C370.304 99.38 370.352 99.38 370.397 99.38C372.675 99.6648 376.146 99.9051 377.856 99.9051C380.943 99.9051 382.56 99.0953 382.56 96.5289C382.56 95.1015 381.704 94.1991 378.997 92.5794L374.2 89.7246C371.301 87.9643 369.355 85.9193 369.355 82.9203C369.355 77.9724 373.059 76.593 377.956 76.593C380.614 76.593 383.133 76.8297 385.367 77.2106C385.983 77.3067 386.268 77.6395 386.268 78.161V79.7326C386.268 80.3021 385.935 80.5425 385.459 80.5425C385.411 80.5425 385.363 80.5425 385.315 80.5425C383.653 80.3982 380.611 80.1616 377.952 80.1616C375.293 80.1616 373.535 80.4944 373.535 82.9203C373.535 84.3477 374.629 85.25 376.815 86.5369L381.519 89.3437C385.463 91.6734 386.744 93.7221 386.744 96.5289C386.74 101.377 383.177 103.422 377.856 103.422Z" fill="white"/>
<path d="M404.742 103.185C403.793 103.329 402.556 103.422 401.655 103.422C397.287 103.422 395.193 102.279 395.193 97.0465V80.4426L390.585 79.9175C390.06 79.8694 389.684 79.5846 389.684 79.0595V77.7763C389.684 77.2512 390.064 76.9184 390.585 76.9184H395.193V72.2552C395.193 71.7782 395.525 71.3973 396.05 71.3048L398.52 70.924C398.568 70.924 398.616 70.924 398.664 70.924C399.044 70.924 399.377 71.2568 399.377 71.7338V76.9184H404.506C405.03 76.9184 405.455 77.3474 405.455 77.8688V79.4848C405.455 80.0099 405.027 80.4352 404.506 80.4352H399.377V97.0391C399.377 99.6573 400.042 100.035 401.943 100.035H404.602C405.267 100.035 405.599 100.223 405.599 100.7V102.364C405.599 102.804 405.363 103.089 404.742 103.185Z" fill="white"/>
</g>
<defs>
<clipPath id="clip0_2_1333">
<rect width="409" height="112.415" fill="white"/>
</clipPath>
</defs>
</svg>
