<svg width="29" height="29" viewBox="0 0 29 29" fill="none" xmlns="http://www.w3.org/2000/svg">
<path fill-rule="evenodd" clip-rule="evenodd" d="M15.1455 14.1455L20.3035 8.98744C20.5801 8.7109 20.5801 8.26391 20.3035 7.98737C20.027 7.71083 19.58 7.71083 19.3035 7.98737L14.1455 13.1454L8.98749 7.98737C8.71095 7.71083 8.26397 7.71083 7.98743 7.98737C7.7109 8.26391 7.7109 8.7109 7.98743 8.98744L13.1454 14.1455L7.98743 19.3036C7.7109 19.5801 7.7109 20.0271 7.98743 20.3036C8.12535 20.4416 8.3064 20.5109 8.48746 20.5109C8.66852 20.5109 8.84957 20.4416 8.98749 20.3036L14.1455 15.1456L19.3035 20.3036C19.4414 20.4416 19.6224 20.5109 19.8035 20.5109C19.9846 20.5109 20.1656 20.4416 20.3035 20.3036C20.5801 20.0271 20.5801 19.5801 20.3035 19.3036L15.1455 14.1455Z" fill="#1D1D1B"/>
</svg>
